<?xml version="1.0" encoding="UTF-8"?>
<!DOCTYPE svg PUBLIC "-//W3C//DTD SVG 1.1//EN"
    "http://www.w3.org/Graphics/SVG/1.1/DTD/svg11.dtd" >
<svg contentScriptType="text/ecmascript" width="2770.8442"
     xmlns:xlink="http://www.w3.org/1999/xlink" zoomAndPan="magnify"
     contentStyleType="text/css"
     viewBox="-1462.068481 -1712.164307 2770.844238 2234.550781"
     height="2234.5508" preserveAspectRatio="xMidYMid meet"
     xmlns="http://www.w3.org/2000/svg" version="1.1">
    <g id="edges">
        <path fill="none" stroke-width="1.0"
              d="M -1195.299561,-580.443115 C -1152.175903,-623.566772 -1152.175903,-537.319458 -1195.299561,-580.443115"
              class="id_3" stroke-opacity="0.49803922" stroke="#82414b"/>
        <path fill="none" stroke-width="1.0"
              d="M -1195.299561,-580.443115 C -1222.526733,-610.416504 -1218.407349,-696.217285 -1188.434082,-723.444458"
              class="id_3 id_7" stroke-opacity="0.49803922" stroke="#82414b"/>
        <path fill="none" stroke-width="1.0"
              d="M -1195.299561,-580.443115 C -1161.773926,-544.349548 -1165.625854,-439.920685 -1201.719360,-406.395050"
              class="id_3 id_35" stroke-opacity="0.49803922" stroke="#82414b"/>
        <path fill="none" stroke-width="1.0"
              d="M -1195.299561,-580.443115 C -1119.022949,-942.661621 -461.280396,-1371.574341 -99.061920,-1295.297729"
              class="id_3 id_122" stroke-opacity="0.49803922" stroke="#82414b"/>
        <path fill="none" stroke-width="1.0"
              d="M -1195.299561,-580.443115 C -1180.283081,-958.442871 -590.758850,-1502.917725 -212.759094,-1487.901245"
              class="id_3 id_26" stroke-opacity="0.49803922" stroke="#82414b"/>
        <path fill="none" stroke-width="1.0"
              d="M -1195.299561,-580.443115 C -1144.663574,-1063.513184 -344.104736,-1712.164307 138.965302,-1661.528320"
              class="id_3 id_86" stroke-opacity="0.49803922" stroke="#82414b"/>
        <path fill="none" stroke-width="1.0"
              d="M -1195.299561,-580.443115 C -1035.893188,-743.753784 -551.817749,-749.610229 -388.507141,-590.203857"
              class="id_3 id_14" stroke-opacity="0.49803922" stroke="#82414b"/>
        <path fill="none" stroke-width="1.0"
              d="M -1195.299561,-580.443115 C -941.159363,-767.991272 -278.626831,-668.103271 -91.078674,-413.963074"
              class="id_3 id_41" stroke-opacity="0.49803922" stroke="#82414b"/>
        <path fill="none" stroke-width="1.0"
              d="M -1195.299561,-580.443115 C -1217.032227,-807.007690 -909.784241,-1179.453613 -683.219604,-1201.186279"
              class="id_3 id_100" stroke-opacity="0.49803922" stroke="#82414b"/>
        <path fill="none" stroke-width="1.0"
              d="M -1195.299561,-580.443115 C -873.290466,-824.370789 -24.385399,-707.248779 219.542297,-385.239685"
              class="id_3 id_90" stroke-opacity="0.49803922" stroke="#82414b"/>
        <path fill="none" stroke-width="1.0"
              d="M -1195.299561,-580.443115 C -1124.970459,-502.400269 -1136.541016,-279.842285 -1214.583984,-209.513184"
              class="id_3 id_16" stroke-opacity="0.49803922" stroke="#82414b"/>
        <path fill="none" stroke-width="1.0"
              d="M -1195.299561,-580.443115 C -1017.954224,-1029.435425 -78.447708,-1436.905762 370.544586,-1259.560425"
              class="id_3 id_52" stroke-opacity="0.49803922" stroke="#82414b"/>
        <path fill="none" stroke-width="1.0"
              d="M -1195.299561,-580.443115 C -1284.827026,-787.809753 -1108.068237,-1233.150879 -900.701599,-1322.678345"
              class="id_3 id_38" stroke-opacity="0.49803922" stroke="#82414b"/>
        <path fill="none" stroke-width="1.0"
              d="M -1195.299561,-580.443115 C -1257.469238,-715.903625 -1147.533081,-1012.348938 -1012.072571,-1074.518677"
              class="id_3 id_54" stroke-opacity="0.49803922" stroke="#82414b"/>
        <path fill="none" stroke-width="1.0"
              d="M -1195.299561,-580.443115 C -1241.339233,-867.907288 -879.202515,-1368.163086 -591.738403,-1414.202759"
              class="id_3 id_2" stroke-opacity="0.49803922" stroke="#82414b"/>
        <path fill="none" stroke-width="1.0"
              d="M -1195.299561,-580.443115 C -1081.791626,-459.775909 -1092.530640,-108.513290 -1213.197754,4.994629"
              class="id_3 id_119" stroke-opacity="0.49803922" stroke="#82414b"/>
        <path fill="none" stroke-width="1.0"
              d="M -1195.299561,-580.443115 C -1330.662354,-745.581482 -1285.999146,-1196.333252 -1120.860718,-1331.696045"
              class="id_3 id_73" stroke-opacity="0.49803922" stroke="#82414b"/>
        <path fill="none" stroke-width="1.0"
              d="M -1195.299561,-580.443115 C -882.420593,-551.985840 -455.787903,-39.981323 -484.245209,272.897705"
              class="id_3 id_137" stroke-opacity="0.49803922" stroke="#82414b"/>
        <path fill="none" stroke-width="1.0"
              d="M 1265.652222,-229.556076 C 1308.775879,-272.679749 1308.775879,-186.432404 1265.652222,-229.556076"
              class="id_5" stroke-opacity="0.49803922" stroke="#82414b"/>
        <path fill="none" stroke-width="1.0"
              d="M 1265.652222,-229.556076 C 703.284485,192.456848 -773.286682,-18.075378 -1195.299561,-580.443115"
              class="id_5 id_3" stroke-opacity="0.49803922" stroke="#82414b"/>
        <path fill="none" stroke-width="1.0"
              d="M 1265.652222,-229.556076 C 676.057312,162.483551 -796.394470,-133.849518 -1188.434082,-723.444458"
              class="id_5 id_7" stroke-opacity="0.49803922" stroke="#82414b"/>
        <path fill="none" stroke-width="1.0"
              d="M 1265.652222,-229.556076 C 862.690735,29.146240 -129.804810,-187.242401 -388.507141,-590.203857"
              class="id_5 id_14" stroke-opacity="0.49803922" stroke="#82414b"/>
        <path fill="none" stroke-width="1.0"
              d="M 1265.652222,-229.556076 C 736.810059,228.550476 -743.612793,122.447083 -1201.719360,-406.395050"
              class="id_5 id_35" stroke-opacity="0.49803922" stroke="#82414b"/>
        <path fill="none" stroke-width="1.0"
              d="M 1265.652222,-229.556076 C 816.792358,313.124084 -670.517578,453.854492 -1213.197754,4.994629"
              class="id_5 id_119" stroke-opacity="0.49803922" stroke="#82414b"/>
        <path fill="none" stroke-width="1.0"
              d="M 1265.652222,-229.556076 C 657.244751,-95.007294 -457.189636,-805.795288 -591.738403,-1414.202759"
              class="id_5 id_2" stroke-opacity="0.49803922" stroke="#82414b"/>
        <path fill="none" stroke-width="1.0"
              d="M 1265.652222,-229.556076 C 957.424622,4.908722 143.386108,-105.735474 -91.078674,-413.963074"
              class="id_5 id_41" stroke-opacity="0.49803922" stroke="#82414b"/>
        <path fill="none" stroke-width="1.0"
              d="M 1265.652222,-229.556076 C 718.300903,-185.542847 -168.745865,-940.549927 -212.759094,-1487.901245"
              class="id_5 id_26" stroke-opacity="0.49803922" stroke="#82414b"/>
        <path fill="none" stroke-width="1.0"
              d="M 1265.652222,-229.556076 C 773.613586,270.499756 -714.528137,282.525513 -1214.583984,-209.513184"
              class="id_5 id_16" stroke-opacity="0.49803922" stroke="#82414b"/>
        <path fill="none" stroke-width="1.0"
              d="M 1265.652222,-229.556076 C 779.561035,-169.761566 -39.267410,-809.206543 -99.061920,-1295.297729"
              class="id_5 id_122" stroke-opacity="0.49803922" stroke="#82414b"/>
        <path fill="none" stroke-width="1.0"
              d="M 1265.652222,-229.556076 C 567.921570,27.318542 -863.986145,-633.965454 -1120.860718,-1331.696045"
              class="id_5 id_73" stroke-opacity="0.49803922" stroke="#82414b"/>
        <path fill="none" stroke-width="1.0"
              d="M 1265.652222,-229.556076 C 1016.163513,220.914185 -33.774956,522.386475 -484.245209,272.897705"
              class="id_5 id_137" stroke-opacity="0.49803922" stroke="#82414b"/>
        <path fill="none" stroke-width="1.0"
              d="M 1265.652222,-229.556076 C 613.757019,-14.909790 -686.055298,-670.783081 -900.701599,-1322.678345"
              class="id_5 id_38" stroke-opacity="0.49803922" stroke="#82414b"/>
        <path fill="none" stroke-width="1.0"
              d="M 1265.652222,-229.556076 C 681.551758,-34.107758 -487.771271,-617.085815 -683.219604,-1201.186279"
              class="id_5 id_100" stroke-opacity="0.49803922" stroke="#82414b"/>
        <path fill="none" stroke-width="1.0"
              d="M 1265.652222,-229.556076 C 641.114746,56.996399 -725.520142,-449.981140 -1012.072571,-1074.518677"
              class="id_5 id_54" stroke-opacity="0.49803922" stroke="#82414b"/>
        <path fill="none" stroke-width="1.0"
              d="M 1265.652222,-229.556076 C 753.920349,-290.613159 77.908203,-1149.796387 138.965302,-1661.528320"
              class="id_5 id_86" stroke-opacity="0.49803922" stroke="#82414b"/>
        <path fill="none" stroke-width="1.0"
              d="M 1265.652222,-229.556076 C 880.629883,-256.535400 343.565247,-874.538025 370.544586,-1259.560425"
              class="id_5 id_52" stroke-opacity="0.49803922" stroke="#82414b"/>
        <path fill="none" stroke-width="1.0"
              d="M -1188.434082,-723.444458 C -1147.739990,-764.138611 -1147.739990,-682.750305 -1188.434082,-723.444458"
              class="id_7" stroke-opacity="0.49803922" stroke="#82414b"/>
        <path fill="none" stroke-width="1.0"
              d="M -1188.434082,-723.444458 C -1182.939575,-920.035706 -879.810852,-1206.680786 -683.219604,-1201.186279"
              class="id_7 id_100" stroke-opacity="0.49803922" stroke="#82414b"/>
        <path fill="none" stroke-width="1.0"
              d="M -1188.434082,-723.444458 C -1250.734375,-900.837769 -1078.094849,-1260.378052 -900.701599,-1322.678345"
              class="id_7 id_38" stroke-opacity="0.49803922" stroke="#82414b"/>
        <path fill="none" stroke-width="1.0"
              d="M -1188.434082,-723.444458 C -1001.800598,-856.781738 -521.844421,-776.837402 -388.507141,-590.203857"
              class="id_7 id_14" stroke-opacity="0.49803922" stroke="#82414b"/>
        <path fill="none" stroke-width="1.0"
              d="M -388.507141,-590.203857 C -345.730530,-632.980469 -345.730530,-547.427246 -388.507141,-590.203857"
              class="id_14" stroke-opacity="0.49803922" stroke="#82414b"/>
        <path fill="none" stroke-width="1.0"
              d="M -388.507141,-590.203857 C -575.140686,-456.866577 -1055.096802,-536.810913 -1188.434082,-723.444458"
              class="id_14 id_7" stroke-opacity="0.49803922" stroke="#82414b"/>
        <path fill="none" stroke-width="1.0"
              d="M -388.507141,-590.203857 C -637.440918,-634.259827 -944.757568,-1073.744629 -900.701599,-1322.678345"
              class="id_14 id_38" stroke-opacity="0.49803922" stroke="#82414b"/>
        <path fill="none" stroke-width="1.0"
              d="M -388.507141,-590.203857 C -569.646118,-653.457825 -746.473572,-1020.047241 -683.219604,-1201.186279"
              class="id_14 id_100" stroke-opacity="0.49803922" stroke="#82414b"/>
        <path fill="none" stroke-width="1.0"
              d="M -388.507141,-590.203857 C -610.083191,-562.353760 -984.222473,-852.942627 -1012.072571,-1074.518677"
              class="id_14 id_54" stroke-opacity="0.49803922" stroke="#82414b"/>
        <path fill="none" stroke-width="1.0"
              d="M -388.507141,-590.203857 C -593.953125,-714.357422 -715.891968,-1208.756714 -591.738403,-1414.202759"
              class="id_14 id_2" stroke-opacity="0.49803922" stroke="#82414b"/>
        <path fill="none" stroke-width="1.0"
              d="M -388.507141,-590.203857 C -225.904419,-670.820862 138.925247,-547.842407 219.542297,-385.239685"
              class="id_14 id_90" stroke-opacity="0.49803922" stroke="#82414b"/>
        <path fill="none" stroke-width="1.0"
              d="M -388.507141,-590.203857 C -532.897034,-804.892944 -427.448181,-1343.511475 -212.759094,-1487.901245"
              class="id_14 id_26" stroke-opacity="0.49803922" stroke="#82414b"/>
        <path fill="none" stroke-width="1.0"
              d="M -388.507141,-590.203857 C -514.387817,-390.799622 -1002.315125,-280.514343 -1201.719360,-406.395050"
              class="id_14 id_35" stroke-opacity="0.49803922" stroke="#82414b"/>
        <path fill="none" stroke-width="1.0"
              d="M -388.507141,-590.203857 C -471.636871,-789.111694 -297.969727,-1212.167969 -99.061920,-1295.297729"
              class="id_14 id_122" stroke-opacity="0.49803922" stroke="#82414b"/>
        <path fill="none" stroke-width="1.0"
              d="M -388.507141,-590.203857 C -477.584412,-348.850372 -973.230530,-120.435944 -1214.583984,-209.513184"
              class="id_14 id_16" stroke-opacity="0.49803922" stroke="#82414b"/>
        <path fill="none" stroke-width="1.0"
              d="M -388.507141,-590.203857 C -370.568115,-875.885559 84.862900,-1277.499512 370.544586,-1259.560425"
              class="id_14 id_52" stroke-opacity="0.49803922" stroke="#82414b"/>
        <path fill="none" stroke-width="1.0"
              d="M -388.507141,-590.203857 C -497.277527,-909.963257 -180.794098,-1552.757935 138.965302,-1661.528320"
              class="id_14 id_86" stroke-opacity="0.49803922" stroke="#82414b"/>
        <path fill="none" stroke-width="1.0"
              d="M -388.507141,-590.203857 C -547.913452,-426.893219 -1031.988892,-421.036774 -1195.299561,-580.443115"
              class="id_14 id_3" stroke-opacity="0.49803922" stroke="#82414b"/>
        <path fill="none" stroke-width="1.0"
              d="M -388.507141,-590.203857 C -434.405609,-306.226013 -929.219910,50.893059 -1213.197754,4.994629"
              class="id_14 id_119" stroke-opacity="0.49803922" stroke="#82414b"/>
        <path fill="none" stroke-width="1.0"
              d="M -388.507141,-590.203857 C -293.773285,-614.441406 -115.316223,-508.696930 -91.078674,-413.963074"
              class="id_14 id_41" stroke-opacity="0.49803922" stroke="#82414b"/>
        <path fill="none" stroke-width="1.0"
              d="M -1214.583984,-209.513184 C -1171.633789,-252.463318 -1171.633789,-166.563049 -1214.583984,-209.513184"
              class="id_16" stroke-opacity="0.49803922" stroke="#82414b"/>
        <path fill="none" stroke-width="1.0"
              d="M -1214.583984,-209.513184 C -1312.140259,-317.529419 -1296.450317,-625.888184 -1188.434082,-723.444458"
              class="id_16 id_7" stroke-opacity="0.49803922" stroke="#82414b"/>
        <path fill="none" stroke-width="1.0"
              d="M -1214.583984,-209.513184 C -1251.387451,-251.462479 -1243.668579,-369.591614 -1201.719360,-406.395050"
              class="id_16 id_35" stroke-opacity="0.49803922" stroke="#82414b"/>
        <path fill="none" stroke-width="1.0"
              d="M -1214.583984,-209.513184 C -1269.896606,-665.555786 -668.801697,-1432.588623 -212.759094,-1487.901245"
              class="id_16 id_26" stroke-opacity="0.49803922" stroke="#82414b"/>
        <path fill="none" stroke-width="1.0"
              d="M -1214.583984,-209.513184 C -1208.636475,-649.774536 -539.323242,-1301.245361 -99.061920,-1295.297729"
              class="id_16 id_122" stroke-opacity="0.49803922" stroke="#82414b"/>
        <path fill="none" stroke-width="1.0"
              d="M -1214.583984,-209.513184 C -1125.506836,-450.866669 -629.860657,-679.281128 -388.507141,-590.203857"
              class="id_16 id_14" stroke-opacity="0.49803922" stroke="#82414b"/>
        <path fill="none" stroke-width="1.0"
              d="M -1214.583984,-209.513184 C -1107.567749,-736.548340 -156.490540,-1366.576660 370.544586,-1259.560425"
              class="id_16 id_52" stroke-opacity="0.49803922" stroke="#82414b"/>
        <path fill="none" stroke-width="1.0"
              d="M -1214.583984,-209.513184 C -962.904114,-531.483704 -102.428230,-636.919617 219.542297,-385.239685"
              class="id_16 id_90" stroke-opacity="0.49803922" stroke="#82414b"/>
        <path fill="none" stroke-width="1.0"
              d="M -1214.583984,-209.513184 C -1306.645752,-514.120667 -987.827148,-1109.124512 -683.219604,-1201.186279"
              class="id_16 id_100" stroke-opacity="0.49803922" stroke="#82414b"/>
        <path fill="none" stroke-width="1.0"
              d="M -1214.583984,-209.513184 C -1234.277222,-770.626099 -422.147614,-1641.835083 138.965302,-1661.528320"
              class="id_16 id_86" stroke-opacity="0.49803922" stroke="#82414b"/>
        <path fill="none" stroke-width="1.0"
              d="M -1214.583984,-209.513184 C -1030.772949,-475.104248 -356.669739,-597.774170 -91.078674,-413.963074"
              class="id_16 id_41" stroke-opacity="0.49803922" stroke="#82414b"/>
        <path fill="none" stroke-width="1.0"
              d="M -1214.583984,-209.513184 C -1284.913086,-287.556030 -1273.342529,-510.114014 -1195.299561,-580.443115"
              class="id_16 id_3" stroke-opacity="0.49803922" stroke="#82414b"/>
        <path fill="none" stroke-width="1.0"
              d="M -1214.583984,-209.513184 C -1171.405151,-166.888870 -1170.573364,-38.184181 -1213.197754,4.994629"
              class="id_16 id_119" stroke-opacity="0.49803922" stroke="#82414b"/>
        <path fill="none" stroke-width="1.0"
              d="M -1214.583984,-209.513184 C -1347.082764,-423.016571 -1225.575928,-942.019836 -1012.072571,-1074.518677"
              class="id_16 id_54" stroke-opacity="0.49803922" stroke="#82414b"/>
        <path fill="none" stroke-width="1.0"
              d="M -1214.583984,-209.513184 C -1330.952759,-575.020203 -957.245422,-1297.833984 -591.738403,-1414.202759"
              class="id_16 id_2" stroke-opacity="0.49803922" stroke="#82414b"/>
        <path fill="none" stroke-width="1.0"
              d="M -1214.583984,-209.513184 C -1420.275879,-452.694427 -1364.041870,-1126.004150 -1120.860718,-1331.696045"
              class="id_16 id_73" stroke-opacity="0.49803922" stroke="#82414b"/>
        <path fill="none" stroke-width="1.0"
              d="M -1214.583984,-209.513184 C -1374.440552,-494.922729 -1186.111084,-1162.821777 -900.701599,-1322.678345"
              class="id_16 id_38" stroke-opacity="0.49803922" stroke="#82414b"/>
        <path fill="none" stroke-width="1.0"
              d="M -1201.719360,-406.395050 C -1159.116333,-448.998108 -1159.116333,-363.791992 -1201.719360,-406.395050"
              class="id_35" stroke-opacity="0.49803922" stroke="#82414b"/>
        <path fill="none" stroke-width="1.0"
              d="M -1201.719360,-406.395050 C -1262.472168,-472.461975 -1254.501099,-662.691589 -1188.434082,-723.444458"
              class="id_35 id_7" stroke-opacity="0.49803922" stroke="#82414b"/>
        <path fill="none" stroke-width="1.0"
              d="M -1201.719360,-406.395050 C -1220.228516,-820.488342 -626.852417,-1469.392090 -212.759094,-1487.901245"
              class="id_35 id_26" stroke-opacity="0.49803922" stroke="#82414b"/>
        <path fill="none" stroke-width="1.0"
              d="M -1201.719360,-406.395050 C -1075.838623,-605.799255 -587.911377,-716.084534 -388.507141,-590.203857"
              class="id_35 id_14" stroke-opacity="0.49803922" stroke="#82414b"/>
        <path fill="none" stroke-width="1.0"
              d="M -1201.719360,-406.395050 C -913.235962,-686.416321 -60.478981,-673.723145 219.542297,-385.239685"
              class="id_35 id_90" stroke-opacity="0.49803922" stroke="#82414b"/>
        <path fill="none" stroke-width="1.0"
              d="M -1201.719360,-406.395050 C -1256.977661,-669.053223 -945.877808,-1145.927979 -683.219604,-1201.186279"
              class="id_35 id_100" stroke-opacity="0.49803922" stroke="#82414b"/>
        <path fill="none" stroke-width="1.0"
              d="M -1201.719360,-406.395050 C -1297.414795,-577.949158 -1183.626709,-978.823303 -1012.072571,-1074.518677"
              class="id_35 id_54" stroke-opacity="0.49803922" stroke="#82414b"/>
        <path fill="none" stroke-width="1.0"
              d="M -1201.719360,-406.395050 C -1057.899658,-891.480957 -114.541290,-1403.380127 370.544586,-1259.560425"
              class="id_35 id_52" stroke-opacity="0.49803922" stroke="#82414b"/>
        <path fill="none" stroke-width="1.0"
              d="M -1201.719360,-406.395050 C -1281.284668,-729.952759 -915.296143,-1334.637451 -591.738403,-1414.202759"
              class="id_35 id_2" stroke-opacity="0.49803922" stroke="#82414b"/>
        <path fill="none" stroke-width="1.0"
              d="M -1201.719360,-406.395050 C -1164.915894,-364.445740 -1172.634766,-246.316635 -1214.583984,-209.513184"
              class="id_35 id_16" stroke-opacity="0.49803922" stroke="#82414b"/>
        <path fill="none" stroke-width="1.0"
              d="M -1201.719360,-406.395050 C -1158.968384,-804.707092 -497.373993,-1338.048706 -99.061920,-1295.297729"
              class="id_35 id_122" stroke-opacity="0.49803922" stroke="#82414b"/>
        <path fill="none" stroke-width="1.0"
              d="M -1201.719360,-406.395050 C -1184.609131,-925.558716 -380.198303,-1678.638672 138.965302,-1661.528320"
              class="id_35 id_86" stroke-opacity="0.49803922" stroke="#82414b"/>
        <path fill="none" stroke-width="1.0"
              d="M -1201.719360,-406.395050 C -1235.244995,-442.488617 -1231.393066,-546.917419 -1195.299561,-580.443115"
              class="id_35 id_3" stroke-opacity="0.49803922" stroke="#82414b"/>
        <path fill="none" stroke-width="1.0"
              d="M -1201.719360,-406.395050 C -981.104858,-630.036804 -314.720398,-634.577576 -91.078674,-413.963074"
              class="id_35 id_41" stroke-opacity="0.49803922" stroke="#82414b"/>
        <path fill="none" stroke-width="1.0"
              d="M -1201.719360,-406.395050 C -1121.737061,-321.821442 -1128.624146,-74.987633 -1213.197754,4.994629"
              class="id_35 id_119" stroke-opacity="0.49803922" stroke="#82414b"/>
        <path fill="none" stroke-width="1.0"
              d="M -91.078674,-413.963074 C -47.781467,-457.260284 -47.781467,-370.665863 -91.078674,-413.963074"
              class="id_41" stroke-opacity="0.49803922" stroke="#82414b"/>
        <path fill="none" stroke-width="1.0"
              d="M -91.078674,-413.963074 C -330.202423,-604.414673 -403.210663,-1248.777466 -212.759094,-1487.901245"
              class="id_41 id_26" stroke-opacity="0.49803922" stroke="#82414b"/>
        <path fill="none" stroke-width="1.0"
              d="M -91.078674,-413.963074 C -372.446045,-256.388245 -1030.859253,-442.077057 -1188.434082,-723.444458"
              class="id_41 id_7" stroke-opacity="0.49803922" stroke="#82414b"/>
        <path fill="none" stroke-width="1.0"
              d="M -91.078674,-413.963074 C -311.693176,-190.321335 -978.077637,-185.780533 -1201.719360,-406.395050"
              class="id_41 id_35" stroke-opacity="0.49803922" stroke="#82414b"/>
        <path fill="none" stroke-width="1.0"
              d="M -91.078674,-413.963074 C -294.582916,-709.484924 -156.556549,-1458.024048 138.965302,-1661.528320"
              class="id_41 id_86" stroke-opacity="0.49803922" stroke="#82414b"/>
        <path fill="none" stroke-width="1.0"
              d="M -91.078674,-413.963074 C -274.889771,-148.372009 -948.992981,-25.702087 -1214.583984,-209.513184"
              class="id_41 id_16" stroke-opacity="0.49803922" stroke="#82414b"/>
        <path fill="none" stroke-width="1.0"
              d="M -91.078674,-413.963074 C -167.873505,-675.407166 109.100464,-1182.765625 370.544586,-1259.560425"
              class="id_41 id_52" stroke-opacity="0.49803922" stroke="#82414b"/>
        <path fill="none" stroke-width="1.0"
              d="M -91.078674,-413.963074 C -268.942261,-588.633301 -273.732178,-1117.434082 -99.061920,-1295.297729"
              class="id_41 id_122" stroke-opacity="0.49803922" stroke="#82414b"/>
        <path fill="none" stroke-width="1.0"
              d="M -91.078674,-413.963074 C -366.951508,-452.979523 -722.236023,-925.313477 -683.219604,-1201.186279"
              class="id_41 id_100" stroke-opacity="0.49803922" stroke="#82414b"/>
        <path fill="none" stroke-width="1.0"
              d="M -91.078674,-413.963074 C -23.209801,-470.342590 163.162781,-453.108582 219.542297,-385.239685"
              class="id_41 id_90" stroke-opacity="0.49803922" stroke="#82414b"/>
        <path fill="none" stroke-width="1.0"
              d="M -91.078674,-413.963074 C -345.218872,-226.414902 -1007.751404,-326.302917 -1195.299561,-580.443115"
              class="id_41 id_3" stroke-opacity="0.49803922" stroke="#82414b"/>
        <path fill="none" stroke-width="1.0"
              d="M -91.078674,-413.963074 C -407.388611,-361.875427 -959.984924,-758.208740 -1012.072571,-1074.518677"
              class="id_41 id_54" stroke-opacity="0.49803922" stroke="#82414b"/>
        <path fill="none" stroke-width="1.0"
              d="M -91.078674,-413.963074 C -480.581696,-391.553223 -1098.450928,-942.192993 -1120.860718,-1331.696045"
              class="id_41 id_73" stroke-opacity="0.49803922" stroke="#82414b"/>
        <path fill="none" stroke-width="1.0"
              d="M -91.078674,-413.963074 C -185.812531,-389.725555 -364.269623,-495.470001 -388.507141,-590.203857"
              class="id_41 id_14" stroke-opacity="0.49803922" stroke="#82414b"/>
        <path fill="none" stroke-width="1.0"
              d="M -91.078674,-413.963074 C -391.258575,-513.879028 -691.654419,-1114.022827 -591.738403,-1414.202759"
              class="id_41 id_2" stroke-opacity="0.49803922" stroke="#82414b"/>
        <path fill="none" stroke-width="1.0"
              d="M -91.078674,-413.963074 C -231.710968,-105.747696 -904.982361,145.626923 -1213.197754,4.994629"
              class="id_41 id_119" stroke-opacity="0.49803922" stroke="#82414b"/>
        <path fill="none" stroke-width="1.0"
              d="M -91.078674,-413.963074 C -434.746338,-433.781525 -920.520020,-979.010742 -900.701599,-1322.678345"
              class="id_41 id_38" stroke-opacity="0.49803922" stroke="#82414b"/>
        <path fill="none" stroke-width="1.0"
              d="M -91.078674,-413.963074 C -32.339813,-197.957611 -268.239746,214.158844 -484.245209,272.897705"
              class="id_41 id_137" stroke-opacity="0.49803922" stroke="#82414b"/>
        <path fill="none" stroke-width="1.0"
              d="M -91.078674,-413.963074 C 217.148926,-648.427856 1031.187378,-537.783691 1265.652222,-229.556076"
              class="id_41 id_5" stroke-opacity="0.49803922" stroke="#82414b"/>
        <path fill="none" stroke-width="1.0"
              d="M 219.542297,-385.239685 C 262.492432,-428.189819 262.492432,-342.289551 219.542297,-385.239685"
              class="id_90" stroke-opacity="0.49803922" stroke="#82414b"/>
        <path fill="none" stroke-width="1.0"
              d="M 219.542297,-385.239685 C -129.693939,-171.285370 -974.479736,-374.208191 -1188.434082,-723.444458"
              class="id_90 id_7" stroke-opacity="0.49803922" stroke="#82414b"/>
        <path fill="none" stroke-width="1.0"
              d="M 219.542297,-385.239685 C -148.506485,-428.776184 -635.274902,-1046.154053 -591.738403,-1414.202759"
              class="id_90 id_2" stroke-opacity="0.49803922" stroke="#82414b"/>
        <path fill="none" stroke-width="1.0"
              d="M 219.542297,-385.239685 C -191.994217,-348.678650 -864.140564,-911.141907 -900.701599,-1322.678345"
              class="id_90 id_38" stroke-opacity="0.49803922" stroke="#82414b"/>
        <path fill="none" stroke-width="1.0"
              d="M 219.542297,-385.239685 C -124.199402,-367.876648 -665.856567,-857.444580 -683.219604,-1201.186279"
              class="id_90 id_100" stroke-opacity="0.49803922" stroke="#82414b"/>
        <path fill="none" stroke-width="1.0"
              d="M 219.542297,-385.239685 C 56.939575,-304.622620 -307.890076,-427.601105 -388.507141,-590.203857"
              class="id_90 id_14" stroke-opacity="0.49803922" stroke="#82414b"/>
        <path fill="none" stroke-width="1.0"
              d="M 219.542297,-385.239685 C -164.636505,-276.772461 -903.605347,-690.339844 -1012.072571,-1074.518677"
              class="id_90 id_54" stroke-opacity="0.49803922" stroke="#82414b"/>
        <path fill="none" stroke-width="1.0"
              d="M 219.542297,-385.239685 C -87.450302,-519.311707 -346.831116,-1180.908569 -212.759094,-1487.901245"
              class="id_90 id_26" stroke-opacity="0.49803922" stroke="#82414b"/>
        <path fill="none" stroke-width="1.0"
              d="M 219.542297,-385.239685 C -68.941124,-105.218414 -921.698120,-117.911621 -1201.719360,-406.395050"
              class="id_90 id_35" stroke-opacity="0.49803922" stroke="#82414b"/>
        <path fill="none" stroke-width="1.0"
              d="M 219.542297,-385.239685 C 74.878586,-590.304321 165.479950,-1114.896729 370.544586,-1259.560425"
              class="id_90 id_52" stroke-opacity="0.49803922" stroke="#82414b"/>
        <path fill="none" stroke-width="1.0"
              d="M 219.542297,-385.239685 C -26.190140,-503.530426 -217.352676,-1049.565308 -99.061920,-1295.297729"
              class="id_90 id_122" stroke-opacity="0.49803922" stroke="#82414b"/>
        <path fill="none" stroke-width="1.0"
              d="M 219.542297,-385.239685 C -32.137627,-63.269165 -892.613464,42.166748 -1214.583984,-209.513184"
              class="id_90 id_16" stroke-opacity="0.49803922" stroke="#82414b"/>
        <path fill="none" stroke-width="1.0"
              d="M 219.542297,-385.239685 C -102.466774,-141.311981 -951.371887,-258.434021 -1195.299561,-580.443115"
              class="id_90 id_3" stroke-opacity="0.49803922" stroke="#82414b"/>
        <path fill="none" stroke-width="1.0"
              d="M 219.542297,-385.239685 C -51.830811,-624.381958 -100.177002,-1390.155273 138.965302,-1661.528320"
              class="id_90 id_86" stroke-opacity="0.49803922" stroke="#82414b"/>
        <path fill="none" stroke-width="1.0"
              d="M 219.542297,-385.239685 C 11.041161,-20.644806 -848.602905,213.495758 -1213.197754,4.994629"
              class="id_90 id_119" stroke-opacity="0.49803922" stroke="#82414b"/>
        <path fill="none" stroke-width="1.0"
              d="M 219.542297,-385.239685 C 151.673431,-328.860168 -34.699158,-346.094177 -91.078674,-413.963074"
              class="id_90 id_41" stroke-opacity="0.49803922" stroke="#82414b"/>
        <path fill="none" stroke-width="1.0"
              d="M 219.542297,-385.239685 C -237.829605,-306.450317 -1042.071411,-874.324158 -1120.860718,-1331.696045"
              class="id_90 id_73" stroke-opacity="0.49803922" stroke="#82414b"/>
        <path fill="none" stroke-width="1.0"
              d="M -1213.197754,4.994629 C -1169.900513,-38.302578 -1169.900513,48.291836 -1213.197754,4.994629"
              class="id_119" stroke-opacity="0.49803922" stroke="#82414b"/>
        <path fill="none" stroke-width="1.0"
              d="M -1213.197754,4.994629 C -1326.705688,-115.672562 -1315.966675,-466.935211 -1195.299561,-580.443115"
              class="id_119 id_3" stroke-opacity="0.49803922" stroke="#82414b"/>
        <path fill="none" stroke-width="1.0"
              d="M -1213.197754,4.994629 C -1353.932861,-145.645920 -1339.074707,-582.709412 -1188.434082,-723.444458"
              class="id_119 id_7" stroke-opacity="0.49803922" stroke="#82414b"/>
        <path fill="none" stroke-width="1.0"
              d="M -1213.197754,4.994629 C -1348.438354,-342.237183 -1030.451416,-1065.945679 -683.219604,-1201.186279"
              class="id_119 id_100" stroke-opacity="0.49803922" stroke="#82414b"/>
        <path fill="none" stroke-width="1.0"
              d="M -1213.197754,4.994629 C -1167.299316,-278.983215 -672.485046,-636.102295 -388.507141,-590.203857"
              class="id_119 id_14" stroke-opacity="0.49803922" stroke="#82414b"/>
        <path fill="none" stroke-width="1.0"
              d="M -1213.197754,4.994629 C -1250.429077,-477.891022 -581.947571,-1258.066406 -99.061920,-1295.297729"
              class="id_119 id_122" stroke-opacity="0.49803922" stroke="#82414b"/>
        <path fill="none" stroke-width="1.0"
              d="M -1213.197754,4.994629 C -1293.180054,-79.578987 -1286.292969,-326.412811 -1201.719360,-406.395050"
              class="id_119 id_35" stroke-opacity="0.49803922" stroke="#82414b"/>
        <path fill="none" stroke-width="1.0"
              d="M -1213.197754,4.994629 C -1004.696655,-359.600250 -145.052582,-593.740845 219.542297,-385.239685"
              class="id_119 id_90" stroke-opacity="0.49803922" stroke="#82414b"/>
        <path fill="none" stroke-width="1.0"
              d="M -1213.197754,4.994629 C -1256.376587,-37.629692 -1257.208374,-166.334366 -1214.583984,-209.513184"
              class="id_119 id_16" stroke-opacity="0.49803922" stroke="#82414b"/>
        <path fill="none" stroke-width="1.0"
              d="M -1213.197754,4.994629 C -1311.689209,-493.672241 -711.425964,-1389.409790 -212.759094,-1487.901245"
              class="id_119 id_26" stroke-opacity="0.49803922" stroke="#82414b"/>
        <path fill="none" stroke-width="1.0"
              d="M -1213.197754,4.994629 C -1072.565430,-303.220764 -399.294037,-554.595398 -91.078674,-413.963074"
              class="id_119 id_41" stroke-opacity="0.49803922" stroke="#82414b"/>
        <path fill="none" stroke-width="1.0"
              d="M -1213.197754,4.994629 C -1416.233154,-323.039215 -1228.735352,-1119.643066 -900.701599,-1322.678345"
              class="id_119 id_38" stroke-opacity="0.49803922" stroke="#82414b"/>
        <path fill="none" stroke-width="1.0"
              d="M -1213.197754,4.994629 C -1462.068481,-280.810913 -1406.666260,-1082.825317 -1120.860718,-1331.696045"
              class="id_119 id_73" stroke-opacity="0.49803922" stroke="#82414b"/>
        <path fill="none" stroke-width="1.0"
              d="M -1213.197754,4.994629 C -1149.360352,-564.664795 -199.114868,-1323.397827 370.544586,-1259.560425"
              class="id_119 id_52" stroke-opacity="0.49803922" stroke="#82414b"/>
        <path fill="none" stroke-width="1.0"
              d="M -1213.197754,4.994629 C -1388.875366,-251.133072 -1268.200317,-898.841064 -1012.072571,-1074.518677"
              class="id_119 id_54" stroke-opacity="0.49803922" stroke="#82414b"/>
        <path fill="none" stroke-width="1.0"
              d="M -1213.197754,4.994629 C -1372.745361,-403.136719 -999.869751,-1254.655151 -591.738403,-1414.202759"
              class="id_119 id_2" stroke-opacity="0.49803922" stroke="#82414b"/>
        <path fill="none" stroke-width="1.0"
              d="M -1213.197754,4.994629 C -1276.069702,-598.742554 -464.771912,-1598.656372 138.965302,-1661.528320"
              class="id_119 id_86" stroke-opacity="0.49803922" stroke="#82414b"/>
        <path fill="none" stroke-width="1.0"
              d="M -1213.197754,4.994629 C -1013.826599,-87.215271 -576.455078,73.526581 -484.245209,272.897705"
              class="id_119 id_137" stroke-opacity="0.49803922" stroke="#82414b"/>
        <path fill="none" stroke-width="1.0"
              d="M -1213.197754,4.994629 C -764.337891,-537.685547 722.972046,-678.415955 1265.652222,-229.556076"
              class="id_119 id_5" stroke-opacity="0.49803922" stroke="#82414b"/>
        <path fill="none" stroke-width="1.0"
              d="M -484.245209,272.897705 C -441.121552,229.774033 -441.121552,316.021362 -484.245209,272.897705"
              class="id_137" stroke-opacity="0.49803922" stroke="#82414b"/>
        <path fill="none" stroke-width="1.0"
              d="M -484.245209,272.897705 C -726.795166,322.483276 -1164.998413,33.036751 -1214.583984,-209.513184"
              class="id_137 id_16" stroke-opacity="0.49803922" stroke="#82414b"/>
        <path fill="none" stroke-width="1.0"
              d="M -484.245209,272.897705 C -763.598633,280.533997 -1194.083008,-127.041672 -1201.719360,-406.395050"
              class="id_137 id_35" stroke-opacity="0.49803922" stroke="#82414b"/>
        <path fill="none" stroke-width="1.0"
              d="M -484.245209,272.897705 C -824.351440,214.467041 -1246.864746,-383.338257 -1188.434082,-723.444458"
              class="id_137 id_7" stroke-opacity="0.49803922" stroke="#82414b"/>
        <path fill="none" stroke-width="1.0"
              d="M -484.245209,272.897705 C -782.107788,-133.559311 -619.216064,-1190.038696 -212.759094,-1487.901245"
              class="id_137 id_26" stroke-opacity="0.49803922" stroke="#82414b"/>
        <path fill="none" stroke-width="1.0"
              d="M -484.245209,272.897705 C -619.778870,-204.551895 -106.905014,-1124.026733 370.544586,-1259.560425"
              class="id_137 id_52" stroke-opacity="0.49803922" stroke="#82414b"/>
        <path fill="none" stroke-width="1.0"
              d="M -484.245209,272.897705 C -720.847656,-117.778061 -489.737671,-1058.695313 -99.061920,-1295.297729"
              class="id_137 id_122" stroke-opacity="0.49803922" stroke="#82414b"/>
        <path fill="none" stroke-width="1.0"
              d="M -484.245209,272.897705 C -797.124207,244.440399 -1223.756958,-267.564087 -1195.299561,-580.443115"
              class="id_137 id_3" stroke-opacity="0.49803922" stroke="#82414b"/>
        <path fill="none" stroke-width="1.0"
              d="M -484.245209,272.897705 C -637.717896,81.129776 -580.275085,-436.731171 -388.507141,-590.203857"
              class="id_137 id_14" stroke-opacity="0.49803922" stroke="#82414b"/>
        <path fill="none" stroke-width="1.0"
              d="M -484.245209,272.897705 C -542.984070,56.892235 -307.084137,-355.224213 -91.078674,-413.963074"
              class="id_137 id_41" stroke-opacity="0.49803922" stroke="#82414b"/>
        <path fill="none" stroke-width="1.0"
              d="M -484.245209,272.897705 C -932.487061,79.302040 -1314.456299,-883.454163 -1120.860718,-1331.696045"
              class="id_137 id_73" stroke-opacity="0.49803922" stroke="#82414b"/>
        <path fill="none" stroke-width="1.0"
              d="M -484.245209,272.897705 C -683.616333,365.107605 -1120.987793,204.365753 -1213.197754,4.994629"
              class="id_137 id_119" stroke-opacity="0.49803922" stroke="#82414b"/>
        <path fill="none" stroke-width="1.0"
              d="M -484.245209,272.897705 C -859.293945,108.979904 -1175.990356,-699.469910 -1012.072571,-1074.518677"
              class="id_137 id_54" stroke-opacity="0.49803922" stroke="#82414b"/>
        <path fill="none" stroke-width="1.0"
              d="M -484.245209,272.897705 C -475.115204,0.512741 -52.842667,-394.369690 219.542297,-385.239685"
              class="id_137 id_90" stroke-opacity="0.49803922" stroke="#82414b"/>
        <path fill="none" stroke-width="1.0"
              d="M -484.245209,272.897705 C -843.163940,-43.023762 -907.659851,-1055.284058 -591.738403,-1414.202759"
              class="id_137 id_2" stroke-opacity="0.49803922" stroke="#82414b"/>
        <path fill="none" stroke-width="1.0"
              d="M -484.245209,272.897705 C -818.856934,17.875778 -938.241577,-866.574646 -683.219604,-1201.186279"
              class="id_137 id_100" stroke-opacity="0.49803922" stroke="#82414b"/>
        <path fill="none" stroke-width="1.0"
              d="M -484.245209,272.897705 C -746.488281,-238.629639 -372.562042,-1399.285156 138.965302,-1661.528320"
              class="id_137 id_86" stroke-opacity="0.49803922" stroke="#82414b"/>
        <path fill="none" stroke-width="1.0"
              d="M -484.245209,272.897705 C -886.651733,37.073784 -1136.525513,-920.271851 -900.701599,-1322.678345"
              class="id_137 id_38" stroke-opacity="0.49803922" stroke="#82414b"/>
        <path fill="none" stroke-width="1.0"
              d="M -99.061920,-1295.297729 C -58.714848,-1335.644775 -58.714848,-1254.950684 -99.061920,-1295.297729"
              class="id_122" stroke-opacity="0.49803922" stroke="#82414b"/>
        <path fill="none" stroke-width="1.0"
              d="M -99.061920,-1295.297729 C -58.714848,-1335.644775 -58.714848,-1254.950684 -99.061920,-1295.297729"
              class="id_122" stroke-opacity="0.49803922" stroke="#82414b"/>
    </g>
    <g id="nodes">
        <circle fill-opacity="1.0" fill="#6a87cb" r="20.0" cx="-591.7384"
                class="id_2" cy="-1414.2028" stroke="#000000"
                stroke-opacity="1.0" stroke-width="1.0"/>
        <circle fill-opacity="1.0" fill="#413ad5" r="21.561834" cx="-1195.2996"
                class="id_3" cy="-580.4431" stroke="#000000"
                stroke-opacity="1.0" stroke-width="1.0"/>
        <circle fill-opacity="1.0" fill="#413ad5" r="21.561834" cx="1265.6522"
                class="id_5" cy="-229.55608" stroke="#000000"
                stroke-opacity="1.0" stroke-width="1.0"/>
        <circle fill-opacity="1.0" fill="#413ad5" r="20.347075" cx="-1188.4341"
                class="id_7" cy="-723.44446" stroke="#000000"
                stroke-opacity="1.0" stroke-width="1.0"/>
        <circle fill-opacity="1.0" fill="#413ad5" r="21.388298" cx="-388.50714"
                class="id_14" cy="-590.20386" stroke="#000000"
                stroke-opacity="1.0" stroke-width="1.0"/>
        <circle fill-opacity="1.0" fill="#413ad5" r="21.475067" cx="-1214.584"
                class="id_16" cy="-209.51318" stroke="#000000"
                stroke-opacity="1.0" stroke-width="1.0"/>
        <circle fill-opacity="1.0" fill="#4b63c6" r="20.0" cx="-212.7591"
                class="id_26" cy="-1487.9012" stroke="#000000"
                stroke-opacity="1.0" stroke-width="1.0"/>
        <circle fill-opacity="1.0" fill="#413ad5" r="21.301529" cx="-1201.7194"
                class="id_35" cy="-406.39505" stroke="#000000"
                stroke-opacity="1.0" stroke-width="1.0"/>
        <circle fill-opacity="1.0" fill="#6381c9" r="20.0" cx="-900.7016"
                class="id_38" cy="-1322.6783" stroke="#000000"
                stroke-opacity="1.0" stroke-width="1.0"/>
        <circle fill-opacity="1.0" fill="#413ad5" r="21.648603" cx="-91.078674"
                class="id_41" cy="-413.96307" stroke="#000000"
                stroke-opacity="1.0" stroke-width="1.0"/>
        <circle fill-opacity="1.0" fill="#9ab0dd" r="20.0" cx="370.5446"
                class="id_52" cy="-1259.5604" stroke="#000000"
                stroke-opacity="1.0" stroke-width="1.0"/>
        <circle fill-opacity="1.0" fill="#6381c9" r="20.0" cx="-1012.0726"
                class="id_54" cy="-1074.5187" stroke="#000000"
                stroke-opacity="1.0" stroke-width="1.0"/>
        <circle fill-opacity="1.0" fill="#6281c9" r="20.0" cx="-1120.8607"
                class="id_73" cy="-1331.696" stroke="#000000"
                stroke-opacity="1.0" stroke-width="1.0"/>
        <circle fill-opacity="1.0" fill="#4857ca" r="20.0" cx="138.9653"
                class="id_86" cy="-1661.5283" stroke="#000000"
                stroke-opacity="1.0" stroke-width="1.0"/>
        <circle fill-opacity="1.0" fill="#413ad5" r="21.475067" cx="219.5423"
                class="id_90" cy="-385.2397" stroke="#000000"
                stroke-opacity="1.0" stroke-width="1.0"/>
        <circle fill-opacity="1.0" fill="#6280c9" r="20.0" cx="-683.2196"
                class="id_100" cy="-1201.1863" stroke="#000000"
                stroke-opacity="1.0" stroke-width="1.0"/>
        <circle fill-opacity="1.0" fill="#413ad5" r="21.648603" cx="-1213.1978"
                class="id_119" cy="4.994629" stroke="#000000"
                stroke-opacity="1.0" stroke-width="1.0"/>
        <circle fill-opacity="1.0" fill="#495ac9" r="20.173536" cx="-99.06192"
                class="id_122" cy="-1295.2977" stroke="#000000"
                stroke-opacity="1.0" stroke-width="1.0"/>
        <circle fill-opacity="1.0" fill="#413ad5" r="21.561834" cx="-484.2452"
                class="id_137" cy="272.8977" stroke="#000000"
                stroke-opacity="1.0" stroke-width="1.0"/>
    </g>
    <g id="node-labels">
        <text font-size="48" x="-591.7384" y="-1402.941" fill="#000000"
              style="text-anchor: middle; dominant-baseline: central;"
              font-family="Arial" class="id_2">
            freezepeach.xyz
        </text>
        <text font-size="52" x="-1195.2996" y="-570.9851" fill="#000000"
              style="text-anchor: middle; dominant-baseline: central;"
              font-family="Arial" class="id_3">
            mastodon.cloud
        </text>
        <text font-size="52" x="1265.6522" y="-217.51457" fill="#000000"
              style="text-anchor: middle; dominant-baseline: central;"
              font-family="Arial" class="id_5">
            mstdn.jp
        </text>
        <text font-size="49" x="-1188.4341" y="-714.5321" fill="#000000"
              style="text-anchor: middle; dominant-baseline: central;"
              font-family="Arial" class="id_7">
            mastodon.social
        </text>
        <text font-size="51" x="-388.50714" y="-580.92773" fill="#000000"
              style="text-anchor: middle; dominant-baseline: central;"
              font-family="Arial" class="id_14">
            social.tchncs.de
        </text>
        <text font-size="52" x="-1214.584" y="-200.05518" fill="#000000"
              style="text-anchor: middle; dominant-baseline: central;"
              font-family="Arial" class="id_16">
            octodon.social
        </text>
        <text font-size="48" x="-212.7591" y="-1476.786" fill="#000000"
              style="text-anchor: middle; dominant-baseline: central;"
              font-family="Arial" class="id_26">
            social.targaryen.house
        </text>
        <text font-size="51" x="-1201.7194" y="-394.5851" fill="#000000"
              style="text-anchor: middle; dominant-baseline: central;"
              font-family="Arial" class="id_35">
            mastodon.xyz
        </text>
        <text font-size="48" x="-900.7016" y="-1311.7037" fill="#000000"
              style="text-anchor: middle; dominant-baseline: central;"
              font-family="Arial" class="id_38">
            shitposter.club
        </text>
        <text font-size="52" x="-91.078674" y="-404.50507" fill="#000000"
              style="text-anchor: middle; dominant-baseline: central;"
              font-family="Arial" class="id_41">
            mstdn.io
        </text>
        <text font-size="48" x="370.5446" y="-1250.6835" fill="#000000"
              style="text-anchor: middle; dominant-baseline: central;"
              font-family="Arial" class="id_52">
            social.wxcafe.net
        </text>
        <text font-size="48" x="-1012.0726" y="-1063.4034" fill="#000000"
              style="text-anchor: middle; dominant-baseline: central;"
              font-family="Arial" class="id_54">
            gs.smuglo.li
        </text>
        <text font-size="48" x="-1120.8607" y="-1320.5808" fill="#000000"
              style="text-anchor: middle; dominant-baseline: central;"
              font-family="Arial" class="id_73">
            cybre.space
        </text>
        <text font-size="48" x="138.9653" y="-1650.4131" fill="#000000"
              style="text-anchor: middle; dominant-baseline: central;"
              font-family="Arial" class="id_86">
            anticapitalist.party
        </text>
        <text font-size="52" x="219.5423" y="-375.76263" fill="#000000"
              style="text-anchor: middle; dominant-baseline: central;"
              font-family="Arial" class="id_90">
            awoo.space
        </text>
        <text font-size="48" x="-683.2196" y="-1192.4558" fill="#000000"
              style="text-anchor: middle; dominant-baseline: central;"
              font-family="Arial" class="id_100">
            social.heldscal.la
        </text>
        <text font-size="52" x="-1213.1978" y="14.611328" fill="#000000"
              style="text-anchor: middle; dominant-baseline: central;"
              font-family="Arial" class="id_119">
            toot.cafe
        </text>
        <text font-size="48" x="-99.06192" y="-1286.5673" fill="#000000"
              style="text-anchor: middle; dominant-baseline: central;"
              font-family="Arial" class="id_122">
            witches.town
        </text>
        <text font-size="52" x="-484.2452" y="282.5144" fill="#000000"
              style="text-anchor: middle; dominant-baseline: central;"
              font-family="Arial" class="id_137">
            mamot.fr
        </text>
    </g>
</svg>